<svg xmlns="http://www.w3.org/2000/svg" version="1.1" width="16" height="16" viewBox="0 0 56 56" style="shape-rendering:geometricPrecision; text-rendering:geometricPrecision; image-rendering:optimizeQuality; fill-rule:evenodd; clip-rule:evenodd" xmlns:xlink="http://www.w3.org/1999/xlink"><g><path style="opacity:0.967" fill="#1295da" d="M 18.5,2.5 C 24.5,2.5 30.5,2.5 36.5,2.5C 36.5,8.16667 36.5,13.8333 36.5,19.5C 40.5546,19.1758 44.5546,19.5091 48.5,20.5C 41.8333,27.8333 34.8333,34.8333 27.5,41.5C 20.1667,34.8333 13.1667,27.8333 6.5,20.5C 10.4454,19.5091 14.4454,19.1758 18.5,19.5C 18.5,13.8333 18.5,8.16667 18.5,2.5 Z"/></g><g><path style="opacity:0.966" fill="#1196db" d="M 6.5,45.5 C 20.5,45.5 34.5,45.5 48.5,45.5C 48.5,47.8333 48.5,50.1667 48.5,52.5C 34.5,52.5 20.5,52.5 6.5,52.5C 6.5,50.1667 6.5,47.8333 6.5,45.5 Z"/></g></svg>