<svg xmlns="http://www.w3.org/2000/svg" width="72" height="72" fill="none"><mask id="a" width="72" height="72" x="0" y="0" fill="#000" maskUnits="userSpaceOnUse"><path fill="#fff" d="M0 0h72v72H0z"/><path fill-rule="evenodd" d="M36 66c16.569 0 30-13.431 30-30C66 19.431 52.569 6 36 6 19.431 6 6 19.431 6 36c0 16.569 13.431 30 30 30zm1.03-42.47a1.812 1.812 0 0 0 0 2.564l7.163 7.162a.362.362 0 0 1-.256.619H23.813a1.813 1.813 0 0 0 0 3.625h20.124c.323 0 .484.39.256.619L37.03 45.28a1.812 1.812 0 1 0 2.563 2.563L50.47 36.97a1.812 1.812 0 0 0 0-2.563L39.594 23.53a1.812 1.812 0 0 0-2.563 0z" clip-rule="evenodd"/></mask><path fill="#fff" fill-rule="evenodd" d="M36 66c16.569 0 30-13.431 30-30C66 19.431 52.569 6 36 6 19.431 6 6 19.431 6 36c0 16.569 13.431 30 30 30zm1.03-42.47a1.812 1.812 0 0 0 0 2.564l7.163 7.162a.362.362 0 0 1-.256.619H23.813a1.813 1.813 0 0 0 0 3.625h20.124c.323 0 .484.39.256.619L37.03 45.28a1.812 1.812 0 1 0 2.563 2.563L50.47 36.97a1.812 1.812 0 0 0 0-2.563L39.594 23.53a1.812 1.812 0 0 0-2.563 0z" clip-rule="evenodd"/><path fill="#0E1011" fill-opacity=".2" d="m37.03 26.094-4.242 4.243 4.243-4.243zm0-2.563-4.242-4.243 4.243 4.243zm7.163 9.725 4.243-4.242-4.243 4.242zm0 4.863 4.243 4.242-4.243-4.242zM37.03 45.28l-4.243-4.243 4.243 4.243zm0 2.563 4.242-4.242-4.242 4.242zm2.563 0-4.242-4.242 4.242 4.242zM50.47 36.97l-4.242-4.242 4.242 4.242zm0-2.563-4.242 4.242 4.242-4.242zM60 36c0 13.255-10.745 24-24 24v12c19.882 0 36-16.118 36-36H60zM36 12c13.255 0 24 10.745 24 24h12C72 16.118 55.882 0 36 0v12zM12 36c0-13.255 10.745-24 24-24V0C16.118 0 0 16.118 0 36h12zm24 24c-13.255 0-24-10.745-24-24H0c0 19.882 16.118 36 36 36V60zm5.273-38.148a4.188 4.188 0 0 1 0 5.921l-8.485-8.485a7.813 7.813 0 0 0 0 11.049l8.486-8.485zm7.163 7.162-7.163-7.162-8.485 8.485 7.162 7.162 8.486-8.486zm-4.5 10.861c5.669 0 8.508-6.853 4.5-10.861l-8.486 8.485c-3.551-3.552-1.036-9.624 3.987-9.624v12zm-20.123 0h20.124v-12H23.813v12zM28 35.687a4.187 4.187 0 0 1-4.188 4.188v-12A7.813 7.813 0 0 0 16 35.688h12zM23.812 31.5A4.187 4.187 0 0 1 28 35.688H16a7.813 7.813 0 0 0 7.813 7.812v-12zm20.125 0H23.813v12h20.124v-12zm4.499 10.861c4.008-4.008 1.169-10.861-4.5-10.861v12c-5.022 0-7.537-6.072-3.986-9.624l8.486 8.486zm-7.163 7.163 7.163-7.163-8.486-8.485-7.162 7.162 8.486 8.486zm0-5.922a4.188 4.188 0 0 1 0 5.922l-8.485-8.486a7.813 7.813 0 0 0 0 11.049l8.486-8.486zm-5.922 0a4.188 4.188 0 0 1 5.922 0l-8.485 8.485a7.813 7.813 0 0 0 11.049 0L35.35 43.6zm10.876-10.875L35.352 43.602l8.485 8.485 10.875-10.875-8.486-8.486zm0 5.922a4.188 4.188 0 0 1 0-5.922l8.485 8.485a7.813 7.813 0 0 0 0-11.049l-8.486 8.485zM35.352 27.773l10.875 10.875 8.485-8.485-10.875-10.875-8.486 8.485zm5.922 0a4.188 4.188 0 0 1-5.922 0l8.485-8.485a7.813 7.813 0 0 0-11.049 0l8.486 8.485z" mask="url(#a)"/></svg>